<svg id="SvgjsSvg1006" width="100%" height="100%" xmlns="http://www.w3.org/2000/svg" version="1.1" xmlns:xlink="http://www.w3.org/1999/xlink" xmlns:svgjs="http://svgjs.com/svgjs"><defs id="SvgjsDefs1007"><marker id="triangle-66hc8l3f6l" markerWidth="4" markerHeight="5" refX="0" refY="5" viewBox="0 0 10 10" orient="auto" markerUnits="strokeWidth" fill="#1ad56c"><path id="SvgjsPath1023" d="M 0 0 L 10 5 L 0 10 z"></path></marker><marker id="triangle-lgljd5hwic" markerWidth="4" markerHeight="5" refX="0" refY="5" viewBox="0 0 10 10" orient="auto" markerUnits="strokeWidth" fill="#1ad56c"><path id="SvgjsPath1026" d="M 0 0 L 10 5 L 0 10 z"></path></marker><marker id="triangle-h0539ak92b" markerWidth="4" markerHeight="5" refX="0" refY="5" viewBox="0 0 10 10" orient="auto" markerUnits="strokeWidth" fill="#198bf7"><path id="SvgjsPath1040" d="M 0 0 L 10 5 L 0 10 z"></path></marker><marker id="triangle-fi9ctj6ibq" markerWidth="4" markerHeight="5" refX="0" refY="5" viewBox="0 0 10 10" orient="auto" markerUnits="strokeWidth" fill="#198bf7"><path id="SvgjsPath1043" d="M 0 0 L 10 5 L 0 10 z"></path></marker></defs><g id="SvgjsG1010"><path id="SvgjsPath1022" d="M183 382 Q183 382 78 372" marker-end="url(#triangle-66hc8l3f6l)" fill="none" stroke="#1ad56c" stroke-width="3"></path><path id="SvgjsPath1025" d="M183 382 Q183 382 77 392" marker-end="url(#triangle-lgljd5hwic)" fill="none" stroke="#1ad56c" stroke-width="3"></path></g><g id="SvgjsG1011"></g><g id="SvgjsG1012"><g id="SvgjsG1013" transform="matrix(1,0,0,1,151,350)"><circle id="SvgjsCircle1014" r="32" cx="32" cy="32" fill="#1ad56c" stroke="#ffffff" stroke-width="3"></circle><text id="SvgjsText1015" font-family="Helvetica, Arial, sans-serif" font-size="18" size="18" fill="#ffffff" x="11" y="14.46875" svgjs:data="{&quot;leading&quot;:&quot;1.3&quot;}" style="font-weight: bold;"><tspan id="SvgjsTspan1016" dy="23.400000000000002" x="11" svgjs:data="{&quot;newLined&quot;:true}">PWR</tspan></text></g><g id="SvgjsG1017" transform="matrix(1,0,0,1,68,362)"><circle id="SvgjsCircle1018" r="10" cx="10" cy="10" fill="#1ad56c" stroke="#ffffff" stroke-width="2"></circle></g><g id="SvgjsG1019" transform="matrix(1,0,0,1,67,382)"><circle id="SvgjsCircle1020" r="10" cx="10" cy="10" fill="#1ad56c" stroke="#ffffff" stroke-width="2"></circle></g></g><g id="SvgjsG1027"><path id="SvgjsPath1039" d="M430 451 Q430 451 571 477" marker-end="url(#triangle-h0539ak92b)" fill="none" stroke="#198bf7" stroke-width="3"></path><path id="SvgjsPath1042" d="M430 451 Q430 451 569 411" marker-end="url(#triangle-fi9ctj6ibq)" fill="none" stroke="#198bf7" stroke-width="3"></path></g><g id="SvgjsG1028"></g><g id="SvgjsG1029"><g id="SvgjsG1030" transform="matrix(1,0,0,1,398,419)"><circle id="SvgjsCircle1031" r="32" cx="32" cy="32" fill="#198bf7" stroke="#ffffff" stroke-width="3"></circle><text id="SvgjsText1032" font-family="Helvetica, Arial, sans-serif" font-size="18" size="18" fill="#ffffff" x="8" y="14.46875" svgjs:data="{&quot;leading&quot;:&quot;1.3&quot;}" style="font-weight: bold;"><tspan id="SvgjsTspan1033" dy="23.400000000000002" x="8" svgjs:data="{&quot;newLined&quot;:true}">OUT1</tspan></text></g><g id="SvgjsG1034" transform="matrix(1,0,0,1,561,467)"><circle id="SvgjsCircle1035" r="10" cx="10" cy="10" fill="#198bf7" stroke="#ffffff" stroke-width="2"></circle></g><g id="SvgjsG1036" transform="matrix(1,0,0,1,559,401)"><circle id="SvgjsCircle1037" r="10" cx="10" cy="10" fill="#198bf7" stroke="#ffffff" stroke-width="2"></circle></g></g></svg>